<svg xmlns="http://www.w3.org/2000/svg" viewBox="0 0 512 190" role="img" aria-labelledby="title">
  <title id="title">Madooza logo</title>
  <rect width="512" height="190" fill="#000000" rx="24" ry="24" />
  <path
    fill="#ffd400"
    d="M58.4 150.6 29.6 46.8h56.8l8.8 38.4 19.2-38.4h47.2l21.2 39.6 7.6-39.6H250l-27.2 103.8h-52.8l-28-54.4-25.2 54.4Zm172.4 0 27.6-103.8h62.4c32.8 0 50.8 15.2 43.2 44l-1.6 6.2c-5.2 19.2-17.2 32.8-37.2 40.4l22.4 13.2-9.6 34h-55.6l5.6-20.8-17.2-11.2-7 32h-33Zm61.2-65.2h15.6c8 0 13.2-3.2 15-10l1.4-5.2c1.6-6.2-1.2-9.2-7.6-9.2H311Zm124.8 66c-40 0-61.6-28.4-51.6-65.2l1.4-5.2c9.8-36.4 41.2-65.2 81.2-65.2 40.2 0 61.6 28.4 51.6 65.2l-1.4 5.2c-9.6 36.4-41 65.2-81.2 65.2Zm12.4-46.8c8 0 13.6-5.4 16.2-14.8l1.4-5.2c2.4-9.2-0.6-14.8-8.6-14.8s-13.6 5.4-16 14.8l-1.4 5.2c-2.6 9.2 0.2 14.8 8.4 14.8Z"
  />
</svg>
